<svg width="64" height="64" viewBox="0 0 64 64" fill="none" xmlns="http://www.w3.org/2000/svg">
  <rect width="64" height="64" rx="16" fill="#FFFFFF"/>
  <rect x="1" y="1" width="62" height="62" rx="15" stroke="#00D5C1" stroke-opacity="0.24" stroke-width="2"/>
  <path d="M52 31.866C52 47.735 42.289 52.827 37.172 48.293C32.96 44.596 31.707 36.784 25.372 35.982C17.331 34.971 16.635 45.678 11.344 45.678C5.184 45.678 4 36.714 4 32.111C4 27.402 5.323 20.984 10.579 20.984C16.705 20.984 17.053 30.157 24.711 29.669C32.334 29.146 32.473 19.589 37.416 15.508C41.732 11.986 52 15.788 52 31.866Z" fill="#00D5C1"/>
  <path d="M52 31.866C52 47.735 42.289 52.827 37.172 48.293C32.96 44.596 31.707 36.784 25.372 35.982C17.331 34.971 16.635 45.678 11.344 45.678C5.184 45.678 4 36.714 4 32.111C4 27.402 5.323 20.984 10.579 20.984C16.705 20.984 17.053 30.157 24.711 29.669C32.334 29.146 32.473 19.589 37.416 15.508C41.732 11.986 52 15.788 52 31.866Z" fill="url(#shine)" fill-opacity="0.5"/>
  <defs>
    <linearGradient id="shine" x1="8" y1="14" x2="51" y2="50" gradientUnits="userSpaceOnUse">
      <stop stop-color="#97FCE4"/>
      <stop offset="0.55" stop-color="#00D5C1"/>
      <stop offset="1" stop-color="#00241E"/>
    </linearGradient>
  </defs>
</svg>
